<svg width="342" height="342" viewBox="0 0 342 342" fill="none" xmlns="http://www.w3.org/2000/svg">
<circle cx="171" cy="171" r="171" fill="#F89797"/>
<circle cx="170.5" cy="170.5" r="148" stroke="#DC7373"/>
<circle cx="171" cy="171" r="131.5" stroke="#DC7373"/>
<circle cx="170.5" cy="170.5" r="112" stroke="#DC7373"/>
<circle r="27" transform="matrix(1 0 0 -1 171 171)" fill="#524D4D" stroke="#D1D1D1" stroke-width="4"/>
<path d="M140.64 284.44C141.456 284.44 141.864 283.72 141.864 282.28V280.912C141.864 278.272 140.232 276.952 136.968 276.952C135.384 276.952 133.944 277.744 132.648 279.328C131.4 280.912 130.464 282.712 129.84 284.728C129.216 286.696 128.904 288.496 128.904 290.128C128.904 293.056 129.6 295.384 130.992 297.112C132.384 298.792 134.4 299.632 137.04 299.632C138 299.632 138.984 299.128 139.992 298.12C141.048 297.112 141.576 296.248 141.576 295.528C141.576 293.896 141.144 293.08 140.28 293.08C139.704 293.08 139.416 293.392 139.416 294.016C139.416 294.64 139.2 295.048 138.768 295.24C138.384 295.432 138 295.408 137.616 295.168C137.232 294.928 137.064 294.472 137.112 293.8C137.16 293.08 137.472 292.408 138.048 291.784C138.672 291.16 139.416 290.848 140.28 290.848C141.192 290.848 141.936 291.304 142.512 292.216C143.088 293.08 143.352 294.136 143.304 295.384C143.304 296.584 142.584 297.952 141.144 299.488C139.704 300.976 138.336 301.72 137.04 301.72C133.68 301.72 131.064 300.688 129.192 298.624C127.368 296.56 126.456 293.704 126.456 290.056C126.456 287.944 126.864 285.64 127.68 283.144C128.496 280.6 129.744 278.344 131.424 276.376C133.104 274.408 135.072 273.424 137.328 273.424C139.632 273.424 141.312 273.64 142.368 274.072C143.472 274.504 144.36 275.392 145.032 276.736C145.704 278.08 146.04 279.52 146.04 281.056C146.04 282.544 145.512 283.84 144.456 284.944C143.448 286.048 142.248 286.6 140.856 286.6C140.76 286.6 140.688 286.6 140.64 286.6C139.488 286.6 138.672 286.312 138.192 285.736C137.76 285.16 137.544 284.632 137.544 284.152C137.544 283.624 137.616 283.12 137.76 282.64C137.904 282.16 138.168 281.872 138.552 281.776C138.984 281.68 139.344 281.776 139.632 282.064C139.92 282.352 139.992 282.808 139.848 283.432C139.704 284.008 139.968 284.344 140.64 284.44ZM159.273 275.512C163.737 275.512 165.969 277.072 165.969 280.192C165.969 281.296 165.609 282.256 164.889 283.072H164.961C165.441 284.32 165.681 285.64 165.681 287.032C165.681 288.424 165.417 289.864 164.889 291.352C165.513 294.616 166.521 297.856 167.913 301.072C168.009 301.264 168.057 301.48 168.057 301.72C168.057 302.008 167.937 302.296 167.697 302.584C167.457 302.92 167.241 303.088 167.049 303.088C166.665 303.088 166.209 302.584 165.681 301.576C165.153 300.616 164.697 299.272 164.313 297.544C163.929 295.768 163.641 294.616 163.449 294.088C161.097 297.496 158.793 299.2 156.537 299.2C156.441 299.2 156.369 299.2 156.321 299.2C153.921 299.2 152.025 298.456 150.633 296.968C149.241 295.432 148.545 293.656 148.545 291.64C148.545 289.624 148.665 287.848 148.905 286.312C149.193 284.776 149.673 283.144 150.345 281.416C151.017 279.688 152.073 278.296 153.513 277.24C155.049 276.088 156.969 275.512 159.273 275.512ZM164.529 280.552C164.529 278.056 162.993 276.808 159.921 276.808C157.617 276.808 155.721 277.936 154.233 280.192C152.793 282.448 152.073 284.896 152.073 287.536C152.073 290.128 152.457 292.312 153.225 294.088C154.041 295.816 155.337 296.68 157.113 296.68C158.265 296.68 159.321 296.248 160.281 295.384C161.769 294.04 162.513 292.936 162.513 292.072C162.513 291.208 162.369 289.96 162.081 288.328C161.793 286.696 161.649 285.592 161.649 285.016C161.649 284.392 161.769 283.84 162.009 283.36C161.625 282.688 161.337 282.256 161.145 282.064C161.001 281.824 161.073 281.608 161.361 281.416C161.697 281.176 161.985 281.2 162.225 281.488H162.153C162.489 281.968 162.825 282.232 163.161 282.28C163.353 282.184 163.521 282.136 163.665 282.136C164.241 281.56 164.529 281.032 164.529 280.552ZM170.811 294.808C170.715 295.048 170.547 295.168 170.307 295.168C170.067 295.168 169.875 295.096 169.731 294.952C169.587 294.76 169.515 294.568 169.515 294.376C169.515 294.136 170.379 292.216 172.107 288.616C171.867 285.832 172.011 281.248 172.539 274.864C173.067 268.432 173.355 265 173.403 264.568C173.835 259.72 174.819 255.232 176.355 251.104C177.027 249.328 178.035 248.44 179.379 248.44C180.771 248.488 181.827 249.736 182.547 252.184C183.315 254.584 183.699 256.84 183.699 258.952C183.699 267.016 181.011 275.752 175.635 285.16C175.683 288.184 175.971 291.64 176.499 295.528C177.027 299.416 177.723 302.2 178.587 303.88C178.923 304.744 179.115 305.224 179.163 305.32C179.259 305.416 179.307 305.512 179.307 305.608C179.355 305.704 179.379 305.776 179.379 305.824C179.379 305.92 179.403 305.968 179.451 305.968C180.219 305.968 180.891 305.608 181.467 304.888C182.091 304.168 182.547 303.256 182.835 302.152C183.315 300.04 183.555 298.216 183.555 296.68C183.555 296.392 183.675 296.2 183.915 296.104C184.155 295.96 184.395 295.96 184.635 296.104C184.875 296.2 185.019 296.392 185.067 296.68C185.067 300.088 184.299 303.088 182.763 305.68C181.851 307.216 180.747 307.984 179.451 307.984C178.203 307.984 176.979 306.784 175.779 304.384C174.579 301.984 173.811 299.992 173.475 298.408C172.947 294.712 172.611 292.288 172.467 291.136C171.795 292.48 171.243 293.704 170.811 294.808ZM179.379 251.608L179.451 252.328C179.355 252.616 179.235 253.072 179.091 253.696C178.995 254.272 178.899 254.656 178.803 254.848C177.891 257.296 177.291 260.608 177.003 264.784C176.907 265.984 176.739 267.784 176.499 270.184C176.019 275.128 175.731 279.184 175.635 282.352L175.779 281.992C180.051 274.12 182.187 266.368 182.187 258.736C182.187 257.248 181.971 255.664 181.539 253.984C181.107 252.304 180.411 251.464 179.451 251.464C179.403 251.512 179.379 251.56 179.379 251.608ZM217.213 302.224C215.581 302.224 214.069 300.976 212.677 298.48C211.333 295.984 210.469 293.752 210.085 291.784C210.037 291.544 209.869 290.32 209.581 288.112C209.341 285.856 209.029 284.176 208.645 283.072C207.589 283.408 206.125 285.016 204.253 287.896C202.429 290.728 201.061 293.104 200.149 295.024C199.957 295.456 199.501 295.6 198.781 295.456C198.109 295.264 197.797 294.904 197.845 294.376C197.893 293.848 197.917 293.056 197.917 292C197.917 290.896 197.965 290.008 198.061 289.336C198.157 288.664 198.253 287.8 198.349 286.744C198.493 285.688 198.589 285.016 198.637 284.728C198.685 284.392 198.709 283.504 198.709 282.064C198.709 280.624 198.685 279.856 198.637 279.76C197.869 280.432 196.549 281.92 194.677 284.224C190.933 288.88 188.557 293.2 187.549 297.184C187.453 297.472 187.237 297.64 186.901 297.688C186.565 297.736 186.253 297.688 185.965 297.544C185.725 297.352 185.605 297.208 185.605 297.112C185.605 296.968 185.821 296.008 186.253 294.232C186.685 292.456 186.925 291.352 186.973 290.92C187.069 290.44 187.165 289.696 187.261 288.688C187.357 287.632 187.429 286.84 187.477 286.312C187.525 285.736 187.549 285.016 187.549 284.152C187.549 282.568 187.237 281.152 186.613 279.904C186.421 279.472 186.517 279.16 186.901 278.968C187.333 278.728 187.669 278.824 187.909 279.256C188.677 280.888 189.109 282.808 189.205 285.016C190.117 283.288 191.629 281.224 193.741 278.824C195.853 276.376 197.581 275.152 198.925 275.152C200.269 275.104 201.253 275.584 201.877 276.592C202.549 277.6 202.885 279.064 202.885 280.984C202.885 282.904 202.405 285.184 201.445 287.824C204.373 282.592 206.941 279.976 209.149 279.976C210.349 279.976 211.261 280.768 211.885 282.352C213.133 285.808 213.925 288.712 214.261 291.064C214.309 291.256 214.381 292.336 214.477 294.304C214.621 296.272 214.885 297.856 215.269 299.056C215.701 300.208 216.373 300.784 217.285 300.784C217.525 300.784 217.789 300.64 218.077 300.352C218.413 300.064 218.701 299.872 218.941 299.776C219.181 299.632 219.397 299.704 219.589 299.992C219.781 300.232 219.877 300.424 219.877 300.568C219.877 300.712 219.781 300.856 219.589 301C219.397 301.096 219.181 301.264 218.941 301.504C218.461 301.984 218.053 302.224 217.717 302.224C217.381 302.224 217.213 302.224 217.213 302.224Z" fill="white"/>
</svg>
