<svg width="166" height="296" viewBox="0 0 166 296" fill="none" xmlns="http://www.w3.org/2000/svg">
<path d="M143.5 72.5C143.5 96.1433 122.79 115.5 97 115.5C71.2098 115.5 50.5 96.1433 50.5 72.5C50.5 48.8567 71.2098 29.5 97 29.5C122.79 29.5 143.5 48.8567 143.5 72.5Z" fill="white" stroke="black" stroke-width="3"/>
<path d="M54 56L141.5 61C139 51.3333 127.3 31.5 100.5 29.5C90.3333 28.6667 66.8 32.8 54 56ZM54 56L9 52" stroke="black" stroke-width="4"/>
<path d="M74.5 37L59 55M66 56.5L82.5 33.5M90 31.5L72.5 56.5M94 31.5L77.5 58M99.5 31.5L84 56.5M107 31.5L87 58M110 31.5L94 58M114.5 33.5L99.5 58M120 35.5L103 58M123.5 38L107 58M128.5 41L110 58M132.5 45.5L114.5 59.5M136.5 50.5L120 59.5M139.5 55L127 59.5" stroke="black"/>
<rect x="79" y="68" width="4" height="20" rx="2" fill="black"/>
<rect x="111" y="68" width="4" height="20" rx="2" fill="black"/>
<path d="M59 97L97 95.5" stroke="black" stroke-width="2"/>
</svg>
