<svg width="160" height="271" viewBox="0 0 160 271" fill="none" xmlns="http://www.w3.org/2000/svg">
<path d="M85.7227 163.203C77.8141 151.806 79.7913 104.985 81.7684 83L105 87.2212V163.203C99.0685 168.269 89.677 165.314 85.7227 163.203Z" fill="white" stroke="black" stroke-width="3"/>
<path d="M135.5 45.5C135.5 69.1433 114.79 88.5 89 88.5C63.2098 88.5 42.5 69.1433 42.5 45.5C42.5 21.8567 63.2098 2.5 89 2.5C114.79 2.5 135.5 21.8567 135.5 45.5Z" fill="white" stroke="black" stroke-width="3"/>
<path d="M46 29L133.5 34C131 24.3333 119.3 4.5 92.5 2.5C82.3333 1.66667 58.8 5.8 46 29ZM46 29L1 25" stroke="black" stroke-width="4"/>
<path d="M66.5 10L51 28M58 29.5L74.5 6.5M82 4.5L64.5 29.5M86 4.5L69.5 31M91.5 4.5L76 29.5M99 4.5L79 31M102 4.5L86 31M106.5 6.5L91.5 31M112 8.5L95 31M115.5 11L99 31M120.5 14L102 31M124.5 18.5L106.5 32.5M128.5 23.5L112 32.5M131.5 28L119 32.5" stroke="black"/>
<rect x="71" y="41" width="4" height="20" rx="2" fill="black"/>
<rect x="103" y="41" width="4" height="20" rx="2" fill="black"/>
<path d="M51 70L89 68.5" stroke="black" stroke-width="2"/>
<rect x="133" y="157" width="12" height="7" rx="3.5" fill="white" stroke="black" stroke-width="2"/>
<path d="M105 86C110.006 90.6512 122.814 111.563 134 158" stroke="black" stroke-width="3"/>
<rect x="25" y="154" width="17" height="7" rx="3.5" fill="white" stroke="black" stroke-width="2"/>
<path d="M81 90.5C74.3333 92.1667 56.8 107.1 40 153.5" stroke="black" stroke-width="3"/>
<path d="M85 161.418L98 248" stroke="black" stroke-width="3"/>
<path d="M97 263L93.5 245.5L101 248L104.5 269H80.5L97 263Z" fill="white" stroke="black" stroke-width="3"/>
<path d="M103.941 162.244L129.479 259.626" stroke="black" stroke-width="3"/>
<path d="M125.814 261.491L121.898 244.079L129.455 246.4L133.455 267.31L109.462 267.882L125.814 261.491Z" fill="white" stroke="black" stroke-width="3"/>
</svg>
