<svg width="61" height="476" viewBox="0 0 61 476" fill="none" xmlns="http://www.w3.org/2000/svg">
<g filter="url(#filter0_d)">
<path d="M27.7456 404.243L45.7118 455.811H9.77938L27.7456 404.243Z" fill="white"/>
<path d="M12.5941 453.811L27.7456 410.322L42.8971 453.811H12.5941Z" stroke="#B0B0B0" stroke-width="4"/>
</g>
<rect x="20.579" width="15.0877" height="427.952" fill="#B0B0B0"/>
<mask id="mask0" mask-type="alpha" maskUnits="userSpaceOnUse" x="21" y="3" width="15" height="425">
<rect x="21.3334" y="3.55639" width="14.3333" height="424.396" fill="#D1D1D1"/>
</mask>
<g mask="url(#mask0)">
<line y1="-2" x2="175.546" y2="-2" transform="matrix(0.746128 -0.665802 0.339853 0.940479 -109.577 74.0365)" stroke="#C4C4C4" stroke-width="4"/>
<line y1="-2" x2="175.546" y2="-2" transform="matrix(0.746128 -0.665802 0.339853 0.940479 -105.671 84.8448)" stroke="#C4C4C4" stroke-width="4"/>
<line y1="-2" x2="175.546" y2="-2" transform="matrix(0.746128 -0.665802 0.339853 0.940479 -101.476 96.4537)" stroke="#C4C4C4" stroke-width="4"/>
<line y1="-2" x2="175.546" y2="-2" transform="matrix(0.746128 -0.665802 0.339853 0.940479 -97.5706 107.262)" stroke="#C4C4C4" stroke-width="4"/>
<line y1="-2" x2="175.546" y2="-2" transform="matrix(0.746128 -0.665802 0.339853 0.940479 -93.6649 118.07)" stroke="#C4C4C4" stroke-width="4"/>
<line y1="-2" x2="175.546" y2="-2" transform="matrix(0.746128 -0.665802 0.339853 0.940479 -89.4697 129.679)" stroke="#C4C4C4" stroke-width="4"/>
<line y1="-2" x2="175.546" y2="-2" transform="matrix(0.746128 -0.665802 0.339853 0.940479 -85.564 140.488)" stroke="#C4C4C4" stroke-width="4"/>
<line y1="-2" x2="175.546" y2="-2" transform="matrix(0.746128 -0.665802 0.339853 0.940479 -81.369 152.097)" stroke="#C4C4C4" stroke-width="4"/>
<line y1="-2" x2="175.546" y2="-2" transform="matrix(0.746128 -0.665802 0.339853 0.940479 -77.174 163.706)" stroke="#C4C4C4" stroke-width="4"/>
<line y1="-2" x2="175.546" y2="-2" transform="matrix(0.746128 -0.665802 0.339853 0.940479 -73.2683 174.514)" stroke="#C4C4C4" stroke-width="4"/>
<line y1="-2" x2="175.546" y2="-2" transform="matrix(0.746128 -0.665802 0.339853 0.940479 -69.3625 185.322)" stroke="#C4C4C4" stroke-width="4"/>
<line y1="-2" x2="175.546" y2="-2" transform="matrix(0.746128 -0.665802 0.339853 0.940479 -65.1676 196.931)" stroke="#C4C4C4" stroke-width="4"/>
<line y1="-2" x2="175.546" y2="-2" transform="matrix(0.746128 -0.665802 0.339853 0.940479 -61.2618 207.739)" stroke="#C4C4C4" stroke-width="4"/>
<line y1="-2" x2="175.546" y2="-2" transform="matrix(0.746128 -0.665802 0.339853 0.940479 -57.3561 218.548)" stroke="#C4C4C4" stroke-width="4"/>
<line y1="-2" x2="175.546" y2="-2" transform="matrix(0.746128 -0.665802 0.339853 0.940479 -53.1611 230.157)" stroke="#C4C4C4" stroke-width="4"/>
<line y1="-2" x2="175.546" y2="-2" transform="matrix(0.746128 -0.665802 0.339853 0.940479 -49.2554 240.965)" stroke="#C4C4C4" stroke-width="4"/>
<line y1="-2" x2="175.546" y2="-2" transform="matrix(0.746128 -0.665802 0.339853 0.940479 -45.3497 251.773)" stroke="#C4C4C4" stroke-width="4"/>
<line y1="-2" x2="175.546" y2="-2" transform="matrix(0.746128 -0.665802 0.339853 0.940479 -41.1547 263.382)" stroke="#C4C4C4" stroke-width="4"/>
<line y1="-2" x2="175.546" y2="-2" transform="matrix(0.746128 -0.665802 0.339853 0.940479 -37.249 274.191)" stroke="#C4C4C4" stroke-width="4"/>
<line y1="-2" x2="175.546" y2="-2" transform="matrix(0.746128 -0.665802 0.339853 0.940479 -35.9996 273.36)" stroke="#C4C4C4" stroke-width="4"/>
<line y1="-2" x2="175.546" y2="-2" transform="matrix(0.746128 -0.665802 0.339853 0.940479 -31.8049 284.969)" stroke="#C4C4C4" stroke-width="4"/>
<line y1="-2" x2="175.546" y2="-2" transform="matrix(0.746128 -0.665802 0.339853 0.940479 -27.8993 295.778)" stroke="#C4C4C4" stroke-width="4"/>
<line y1="-2" x2="175.546" y2="-2" transform="matrix(0.746128 -0.665802 0.339853 0.940479 -23.9935 306.586)" stroke="#C4C4C4" stroke-width="4"/>
<line y1="-2" x2="175.546" y2="-2" transform="matrix(0.746128 -0.665802 0.339853 0.940479 -19.7986 318.195)" stroke="#C4C4C4" stroke-width="4"/>
<line y1="-2" x2="175.546" y2="-2" transform="matrix(0.746128 -0.665802 0.339853 0.940479 -15.8927 329.003)" stroke="#C4C4C4" stroke-width="4"/>
<line y1="-2" x2="175.546" y2="-2" transform="matrix(0.746128 -0.665802 0.339853 0.940479 -11.9871 339.812)" stroke="#C4C4C4" stroke-width="4"/>
<line y1="-2" x2="175.546" y2="-2" transform="matrix(0.746128 -0.665802 0.339853 0.940479 -7.79199 351.42)" stroke="#C4C4C4" stroke-width="4"/>
<line y1="-2" x2="175.546" y2="-2" transform="matrix(0.746128 -0.665802 0.339853 0.940479 -3.88623 362.229)" stroke="#C4C4C4" stroke-width="4"/>
<line y1="-2" x2="175.546" y2="-2" transform="matrix(0.746128 -0.665802 0.339853 0.940479 0.0195312 373.037)" stroke="#C4C4C4" stroke-width="4"/>
<line y1="-2" x2="175.546" y2="-2" transform="matrix(0.746128 -0.665802 0.339853 0.940479 4.21448 384.646)" stroke="#C4C4C4" stroke-width="4"/>
<line y1="-2" x2="175.546" y2="-2" transform="matrix(0.746128 -0.665802 0.339853 0.940479 8.12024 395.454)" stroke="#C4C4C4" stroke-width="4"/>
<line y1="-2" x2="175.546" y2="-2" transform="matrix(0.746128 -0.665802 0.339853 0.940479 12.3152 407.063)" stroke="#C4C4C4" stroke-width="4"/>
<line y1="-2" x2="175.546" y2="-2" transform="matrix(0.746128 -0.665802 0.339853 0.940479 16.5101 418.672)" stroke="#C4C4C4" stroke-width="4"/>
<line y1="-2" x2="175.546" y2="-2" transform="matrix(0.746128 -0.665802 0.339853 0.940479 20.4159 429.481)" stroke="#C4C4C4" stroke-width="4"/>
<line y1="-2" x2="175.546" y2="-2" transform="matrix(0.746128 -0.665802 0.339853 0.940479 24.3217 440.289)" stroke="#C4C4C4" stroke-width="4"/>
<line y1="-2" x2="175.546" y2="-2" transform="matrix(0.746128 -0.665802 0.339853 0.940479 28.5166 451.898)" stroke="#C4C4C4" stroke-width="4"/>
<line y1="-2" x2="175.546" y2="-2" transform="matrix(0.746128 -0.665802 0.339853 0.940479 32.4224 462.706)" stroke="#C4C4C4" stroke-width="4"/>
<line y1="-2" x2="175.546" y2="-2" transform="matrix(0.746128 -0.665802 0.339853 0.940479 36.328 473.515)" stroke="#C4C4C4" stroke-width="4"/>
</g>
<defs>
<filter id="filter0_d" x="0.779419" y="400.243" width="59.9325" height="75.5677" filterUnits="userSpaceOnUse" color-interpolation-filters="sRGB">
<feFlood flood-opacity="0" result="BackgroundImageFix"/>
<feColorMatrix in="SourceAlpha" type="matrix" values="0 0 0 0 0 0 0 0 0 0 0 0 0 0 0 0 0 0 127 0"/>
<feOffset dx="3" dy="8"/>
<feGaussianBlur stdDeviation="6"/>
<feColorMatrix type="matrix" values="0 0 0 0 0 0 0 0 0 0 0 0 0 0 0 0 0 0 0.5 0"/>
<feBlend mode="normal" in2="BackgroundImageFix" result="effect1_dropShadow"/>
<feBlend mode="normal" in="SourceGraphic" in2="effect1_dropShadow" result="shape"/>
</filter>
</defs>
</svg>
