<svg width="24" height="24" viewBox="0 0 24 24" fill="none" xmlns="http://www.w3.org/2000/svg">
<rect x="1" y="1" width="22" height="22" fill="white" stroke="black" stroke-width="2"/>
<path d="M11.004 13.684C10.924 13.42 10.884 13.204 10.884 13.036C10.884 12.868 10.916 12.692 10.98 12.508C11.044 12.324 11.196 12.112 11.436 11.872C11.684 11.624 11.936 11.416 12.192 11.248C12.456 11.08 12.688 10.872 12.888 10.624C13.088 10.376 13.188 10.112 13.188 9.832C13.188 9.232 12.78 8.932 11.964 8.932C11.628 8.932 11.308 8.996 11.004 9.124C10.98 9.54 10.904 9.872 10.776 10.12H9.636C9.532 9.912 9.452 9.648 9.396 9.328C9.34 9 9.312 8.768 9.312 8.632C9.312 8.496 9.312 8.404 9.312 8.356C9.656 8.124 10.076 7.944 10.572 7.816C11.076 7.688 11.56 7.624 12.024 7.624C12.912 7.624 13.64 7.828 14.208 8.236C14.776 8.636 15.06 9.212 15.06 9.964C15.06 10.292 14.988 10.596 14.844 10.876C14.708 11.148 14.536 11.372 14.328 11.548C14.128 11.716 13.908 11.888 13.668 12.064C13.436 12.24 13.22 12.4 13.02 12.544C12.596 12.832 12.384 13.176 12.384 13.576C12.384 13.608 12.388 13.644 12.396 13.684H11.004ZM11.664 16.096C11 16.096 10.668 15.796 10.668 15.196C10.668 14.588 11 14.284 11.664 14.284C12.336 14.284 12.672 14.588 12.672 15.196C12.672 15.796 12.336 16.096 11.664 16.096Z" fill="black"/>
<circle cx="4" cy="4" r="1" fill="black"/>
<circle cx="4" cy="20" r="1" fill="black"/>
<circle cx="20" cy="20" r="1" fill="black"/>
<circle cx="19" cy="4" r="1" fill="black"/>
</svg>
