<svg width="73" height="24" viewBox="0 0 73 24" fill="none" xmlns="http://www.w3.org/2000/svg">
<rect width="24" height="23" fill="#C4C4C4"/>
<path d="M0.5 4.5H5.5M24 1.5V4.5H11.5M11.5 1V4.5M11.5 4.5H5.5M5.5 4.5V11M0 11H24V17H17.5M0 17H5.5M5.5 17V23M5.5 17H17.5M17.5 17V23M0 23H24" stroke="black" stroke-width="2"/>
<rect x="48" width="24" height="23" fill="#C4C4C4"/>
<path d="M48.5 4.5H53.5M72 1.5V4.5H59.5M59.5 1V4.5M59.5 4.5H53.5M53.5 4.5V11M48 11H72V17H65.5M48 17H53.5M53.5 17V23M53.5 17H65.5M65.5 17V23M48 23H72" stroke="black" stroke-width="2"/>
</svg>
