<svg width="342" height="342" viewBox="0 0 342 342" fill="none" xmlns="http://www.w3.org/2000/svg">
<circle cx="171" cy="171" r="171" fill="#97CFF8"/>
<circle cx="170.5" cy="170.5" r="148" stroke="#73A9DC"/>
<circle cx="171" cy="171" r="131.5" stroke="#73A9DC"/>
<circle cx="170.5" cy="170.5" r="112" stroke="#73A9DC"/>
<circle r="27" transform="matrix(1 0 0 -1 171 171)" fill="#505357" stroke="#D1D1D1" stroke-width="4"/>
<path d="M118.64 275.44C119.456 275.44 119.864 274.72 119.864 273.28V271.912C119.864 269.272 118.232 267.952 114.968 267.952C113.384 267.952 111.944 268.744 110.648 270.328C109.4 271.912 108.464 273.712 107.84 275.728C107.216 277.696 106.904 279.496 106.904 281.128C106.904 284.056 107.6 286.384 108.992 288.112C110.384 289.792 112.4 290.632 115.04 290.632C116 290.632 116.984 290.128 117.992 289.12C119.048 288.112 119.576 287.248 119.576 286.528C119.576 284.896 119.144 284.08 118.28 284.08C117.704 284.08 117.416 284.392 117.416 285.016C117.416 285.64 117.2 286.048 116.768 286.24C116.384 286.432 116 286.408 115.616 286.168C115.232 285.928 115.064 285.472 115.112 284.8C115.16 284.08 115.472 283.408 116.048 282.784C116.672 282.16 117.416 281.848 118.28 281.848C119.192 281.848 119.936 282.304 120.512 283.216C121.088 284.08 121.352 285.136 121.304 286.384C121.304 287.584 120.584 288.952 119.144 290.488C117.704 291.976 116.336 292.72 115.04 292.72C111.68 292.72 109.064 291.688 107.192 289.624C105.368 287.56 104.456 284.704 104.456 281.056C104.456 278.944 104.864 276.64 105.68 274.144C106.496 271.6 107.744 269.344 109.424 267.376C111.104 265.408 113.072 264.424 115.328 264.424C117.632 264.424 119.312 264.64 120.368 265.072C121.472 265.504 122.36 266.392 123.032 267.736C123.704 269.08 124.04 270.52 124.04 272.056C124.04 273.544 123.512 274.84 122.456 275.944C121.448 277.048 120.248 277.6 118.856 277.6C118.76 277.6 118.688 277.6 118.64 277.6C117.488 277.6 116.672 277.312 116.192 276.736C115.76 276.16 115.544 275.632 115.544 275.152C115.544 274.624 115.616 274.12 115.76 273.64C115.904 273.16 116.168 272.872 116.552 272.776C116.984 272.68 117.344 272.776 117.632 273.064C117.92 273.352 117.992 273.808 117.848 274.432C117.704 275.008 117.968 275.344 118.64 275.44ZM128.849 284.152L128.921 281.848C128.921 273.4 128.345 268.96 127.193 268.528C126.809 268.432 126.617 268.24 126.617 267.952C126.617 267.616 126.713 267.352 126.905 267.16C127.097 266.968 127.337 266.92 127.625 267.016C128.489 267.304 129.305 268 130.073 269.104C131.321 271.024 132.065 273.664 132.305 277.024C133.841 271.504 135.425 267.28 137.057 264.352C139.169 260.8 141.425 259.024 143.825 259.024C145.361 259.072 146.633 259.912 147.641 261.544C148.649 263.128 149.153 264.856 149.153 266.728C149.153 268.6 148.457 270.976 147.065 273.856C145.673 276.688 144.113 278.104 142.385 278.104C141.617 278.104 140.897 277.432 140.225 276.088C139.601 274.696 139.289 273.376 139.289 272.128C139.289 270.832 139.745 269.32 140.657 267.592C140.801 267.304 140.993 267.16 141.233 267.16C141.521 267.16 141.737 267.28 141.881 267.52C142.025 267.712 141.953 268.072 141.665 268.6C141.425 269.128 141.305 270.496 141.305 272.704C141.305 274.864 141.641 275.944 142.313 275.944C143.609 275.944 144.545 274.888 145.121 272.776C145.697 270.664 145.985 268.456 145.985 266.152C145.985 263.8 145.745 262.312 145.265 261.688C144.881 261.208 144.377 260.968 143.753 260.968C140.489 260.968 137.201 266.608 133.889 277.888C133.649 278.8 133.505 280.096 133.457 281.776C133.457 283.408 133.385 284.608 133.241 285.376C133.385 286.576 133.457 287.824 133.457 289.12C133.457 290.416 133.217 291.568 132.737 292.576C132.113 293.968 131.297 294.664 130.289 294.664C129.809 294.664 129.425 294.424 129.137 293.944C128.849 293.512 128.705 293.056 128.705 292.576L128.993 290.776C129.377 290.2 129.449 289.24 129.209 287.896C128.969 286.36 128.849 285.112 128.849 284.152ZM161.28 268.528C162.384 268.528 163.416 269.176 164.376 270.472C165.384 271.72 165.888 272.992 165.888 274.288C165.888 275.536 165.408 276.808 164.448 278.104C163.536 279.4 162.36 280.072 160.92 280.12C160.248 280.12 159.048 279.76 157.32 279.04C155.64 278.272 154.464 277.6 153.792 277.024C152.304 280.768 152.712 284.224 155.016 287.392C155.928 288.64 156.936 289.264 158.04 289.264C159.144 289.264 160.368 288.808 161.712 287.896C163.056 286.936 163.896 286 164.232 285.088C164.616 284.176 165.048 283.744 165.528 283.792C165.816 283.84 165.96 284.008 165.96 284.296C165.96 284.584 165.864 284.968 165.672 285.448C165.048 287.128 164.088 288.568 162.792 289.768C161.544 290.968 160.152 291.568 158.616 291.568C156.264 291.52 154.32 290.704 152.784 289.12C151.296 287.584 150.24 285.544 149.616 283C149.616 279.832 150.384 276.88 151.92 274.144C153.504 271.408 155.736 269.608 158.616 268.744C159.288 268.6 160.176 268.528 161.28 268.528ZM161.208 278.104C161.928 278.104 162.528 277.672 163.008 276.808C163.536 275.944 163.8 275.104 163.8 274.288C163.8 273.472 163.464 272.656 162.792 271.84C162.168 271.024 161.592 270.616 161.064 270.616C160.536 270.616 159.936 270.784 159.264 271.12C157.104 271.744 155.472 273.256 154.368 275.656C154.416 275.656 154.536 275.776 154.728 276.016C154.968 276.208 155.928 276.616 157.608 277.24C159.288 277.816 160.488 278.104 161.208 278.104ZM179.562 268.528C180.666 268.528 181.698 269.176 182.658 270.472C183.666 271.72 184.17 272.992 184.17 274.288C184.17 275.536 183.69 276.808 182.73 278.104C181.818 279.4 180.642 280.072 179.202 280.12C178.53 280.12 177.33 279.76 175.602 279.04C173.922 278.272 172.746 277.6 172.074 277.024C170.586 280.768 170.994 284.224 173.298 287.392C174.21 288.64 175.218 289.264 176.322 289.264C177.426 289.264 178.65 288.808 179.994 287.896C181.338 286.936 182.178 286 182.514 285.088C182.898 284.176 183.33 283.744 183.81 283.792C184.098 283.84 184.242 284.008 184.242 284.296C184.242 284.584 184.146 284.968 183.954 285.448C183.33 287.128 182.37 288.568 181.074 289.768C179.826 290.968 178.434 291.568 176.898 291.568C174.546 291.52 172.602 290.704 171.066 289.12C169.578 287.584 168.522 285.544 167.898 283C167.898 279.832 168.666 276.88 170.202 274.144C171.786 271.408 174.018 269.608 176.898 268.744C177.57 268.6 178.458 268.528 179.562 268.528ZM179.49 278.104C180.21 278.104 180.81 277.672 181.29 276.808C181.818 275.944 182.082 275.104 182.082 274.288C182.082 273.472 181.746 272.656 181.074 271.84C180.45 271.024 179.874 270.616 179.346 270.616C178.818 270.616 178.218 270.784 177.546 271.12C175.386 271.744 173.754 273.256 172.65 275.656C172.698 275.656 172.818 275.776 173.01 276.016C173.25 276.208 174.21 276.616 175.89 277.24C177.57 277.816 178.77 278.104 179.49 278.104ZM184.883 300.64C184.883 298.96 184.451 298.12 183.587 298.12C182.531 298.12 181.571 299.008 180.707 300.784C179.795 302.608 179.291 303.928 179.195 304.744C179.099 305.608 179.051 306.328 179.051 306.904C179.051 307.528 179.147 308.464 179.339 309.712C179.483 310.96 179.987 312.256 180.851 313.6C181.667 314.992 182.747 315.688 184.091 315.688C185.915 315.688 187.499 313.552 188.843 309.28C189.851 305.872 190.355 299.704 190.355 290.776C190.355 288.232 189.971 284.344 189.203 279.112C188.435 273.88 188.051 270.472 188.051 268.888C188.051 267.256 188.051 266.296 188.051 266.008C188.051 265 188.771 263.68 190.211 262.048C190.403 261.856 190.571 261.76 190.715 261.76C190.859 261.76 191.027 261.784 191.219 261.832C191.459 261.88 191.627 262.048 191.723 262.336C191.819 262.624 191.795 262.912 191.651 263.2C191.507 263.44 191.483 263.68 191.579 263.92C192.011 265.12 192.227 265.888 192.227 266.224C192.227 266.56 192.227 267.256 192.227 268.312C192.227 269.32 192.323 270.952 192.515 273.208C193.859 270.376 195.539 267.832 197.555 265.576C199.571 263.32 201.323 262.192 202.811 262.192C205.307 262.192 207.131 263.224 208.283 265.288C209.483 267.304 210.083 269.8 210.083 272.776C210.083 275.704 209.459 278.92 208.211 282.424C206.963 285.88 205.163 288.448 202.811 290.128C201.755 290.896 200.651 291.28 199.499 291.28C198.395 291.28 197.435 290.368 196.619 288.544C195.851 286.72 195.467 285.16 195.467 283.864C195.467 282.568 195.899 281.176 196.763 279.688C197.675 278.152 198.731 277.384 199.931 277.384C201.179 277.384 201.923 278.44 202.163 280.552C202.163 280.936 202.019 281.224 201.731 281.416C201.443 281.608 201.155 281.632 200.867 281.488C200.579 281.344 200.411 281.128 200.363 280.84C200.363 280.504 200.387 280.216 200.435 279.976C200.579 279.352 200.411 279.04 199.931 279.04C198.443 279.04 197.699 280.648 197.699 283.864C197.699 284.488 197.867 285.232 198.203 286.096C198.539 286.96 198.971 287.392 199.499 287.392C199.547 287.392 200.051 287.008 201.011 286.24C202.355 285.28 203.507 283.336 204.467 280.408C205.427 277.432 205.931 274.912 205.979 272.848C206.027 267.52 204.995 264.856 202.883 264.856C202.835 264.856 202.811 264.856 202.811 264.856C201.083 264.856 199.235 266.08 197.267 268.528C195.299 270.976 193.859 273.496 192.947 276.088C193.955 283.816 194.459 288.736 194.459 290.848C194.459 297.952 193.571 304.384 191.795 310.144C191.267 311.968 190.259 313.768 188.771 315.544C187.331 317.32 185.771 318.208 184.091 318.208C181.595 318.16 179.771 316.6 178.619 313.528C177.707 311.08 177.251 308.848 177.251 306.832C177.251 304.672 177.971 302.368 179.411 299.92C180.803 297.52 182.147 296.296 183.443 296.248C184.691 296.248 185.579 296.848 186.107 298.048C186.683 299.296 186.971 300.592 186.971 301.936C186.971 305.872 185.627 308.008 182.939 308.344C182.507 308.392 182.195 308.272 182.003 307.984C181.763 307.696 181.715 307.36 181.859 306.976C182.003 306.592 182.291 306.376 182.723 306.328C184.163 306.184 184.883 304.744 184.883 302.008V300.64ZM221.963 267.88C221.963 265.96 221.075 265 219.299 265C217.571 265 216.227 265.888 215.267 267.664C214.307 269.44 213.827 271.36 213.827 273.424C213.875 275.44 214.715 276.448 216.347 276.448C216.779 276.448 217.067 276.352 217.211 276.16C217.355 275.92 217.427 275.584 217.427 275.152C217.427 274.72 217.547 274.456 217.787 274.36C218.027 274.216 218.267 274.192 218.507 274.288C218.747 274.432 218.867 274.96 218.867 275.872C218.867 276.736 218.699 277.384 218.363 277.816C218.075 278.2 217.403 278.392 216.347 278.392C215.291 278.392 214.331 278.152 213.467 277.672C212.459 276.856 211.955 275.344 211.955 273.136C211.955 270.928 212.651 268.744 214.043 266.584C215.483 264.424 217.235 263.344 219.299 263.344C222.899 263.488 224.699 265.288 224.699 268.744C224.699 269.32 224.531 270.712 224.195 272.92C223.859 275.128 223.619 276.544 223.475 277.168C223.235 278.224 223.115 279.784 223.115 281.848C223.115 285.208 223.859 286.888 225.347 286.888C227.219 286.888 228.947 285.256 230.531 281.992C230.579 281.896 230.675 281.656 230.819 281.272C229.571 277.816 228.947 274.72 228.947 271.984C228.947 268.144 230.003 266.224 232.115 266.224C233.027 266.224 233.699 266.8 234.131 267.952C234.563 269.104 234.779 270.232 234.779 271.336C234.779 274.504 234.155 277.672 232.907 280.84L232.835 280.768C233.123 281.488 233.651 282.736 234.419 284.512C235.235 286.24 235.835 287.56 236.219 288.472C237.275 291.208 237.803 293.656 237.803 295.816C237.707 299.08 237.395 301.672 236.867 303.592C236.339 305.56 235.283 307.408 233.699 309.136C232.115 310.912 230.291 312.16 228.227 312.88C226.211 313.648 224.675 314.032 223.619 314.032C222.611 314.032 221.747 313.864 221.027 313.528C218.771 312.568 216.851 310.96 215.267 308.704C213.731 306.496 212.963 304.096 212.963 301.504C212.963 298.912 214.019 296.704 216.131 294.88C218.291 293.104 220.811 292.216 223.691 292.216C225.467 292.216 227.075 292.912 228.515 294.304C230.003 295.744 230.747 297.256 230.747 298.84C230.747 300.472 230.123 302.08 228.875 303.664C227.627 305.248 226.307 306.04 224.915 306.04C224.051 306.04 222.971 305.56 221.675 304.6C220.427 303.64 219.803 302.8 219.803 302.08C219.803 301.36 220.043 300.616 220.523 299.848C221.003 299.128 221.291 298.624 221.387 298.336C221.531 298.048 221.819 298.024 222.251 298.264C222.731 298.504 222.683 299.056 222.107 299.92C221.531 300.832 221.243 301.504 221.243 301.936C221.243 302.368 221.651 302.848 222.467 303.376C223.283 303.904 223.979 304.168 224.555 304.168C225.131 304.168 225.899 303.544 226.859 302.296C227.819 301.096 228.299 299.968 228.299 298.912C228.299 297.904 227.819 296.848 226.859 295.744C225.899 294.64 224.867 294.088 223.763 294.088C221.795 294.088 220.019 294.856 218.435 296.392C216.851 297.976 216.059 299.704 216.059 301.576C216.059 303.496 216.659 305.2 217.859 306.688C219.107 308.224 220.643 309.376 222.467 310.144C222.851 310.336 223.379 310.432 224.051 310.432C224.771 310.432 225.899 310.144 227.435 309.568C228.971 309.04 230.147 308.32 230.963 307.408C233.843 304.432 235.283 301.408 235.283 298.336C235.283 295.408 235.139 293.392 234.851 292.288C234.611 291.184 234.299 290.128 233.915 289.12C233.531 288.112 233.123 287.056 232.691 285.952C232.259 284.8 231.947 283.936 231.755 283.36C229.643 287.248 227.531 289.192 225.419 289.192C225.371 289.192 225.323 289.192 225.275 289.192C223.403 289.192 221.891 288.088 220.739 285.88C219.587 283.624 219.011 281.536 219.011 279.616C219.011 278.848 219.251 277.792 219.731 276.448C221.219 272.032 221.963 269.176 221.963 267.88ZM231.827 278.176C232.355 275.776 232.619 273.568 232.619 271.552C232.619 269.488 232.355 268.456 231.827 268.456C231.203 268.456 230.723 269.056 230.387 270.256C230.243 270.688 230.195 271.12 230.243 271.552H230.315C230.507 273.472 231.011 275.68 231.827 278.176Z" fill="white"/>
</svg>
