<svg width="76" height="41" viewBox="0 0 76 41" fill="none" xmlns="http://www.w3.org/2000/svg">
<path d="M17.0588 30.9171C13.9288 30.9171 11.7552 24.9071 11.0596 21.9021C11.0596 25.7202 7.9296 25.2606 6.3646 24.5536C3.44326 23.7051 3.75627 21.195 4.27793 20.0461C0.730595 18.5612 2.10432 16.0689 3.2346 15.0083C2.97377 15.5386 2.81727 16.281 4.27793 15.0083C5.7386 13.7356 8.71211 14.478 10.0163 15.0083C11.4769 10.9781 16.3632 12.622 18.6238 13.9477C17.3718 10.3417 20.1888 9.26345 21.7538 9.17506C21.7538 6.62965 24.1882 6.87713 25.4055 7.31905C25.3185 5.99331 25.6663 3.34184 27.753 3.34184C29.8396 3.34184 29.4919 5.99331 29.0571 7.31905C31.3525 7.31905 31.2307 9.61698 30.883 10.7659C32.3748 10.7659 32.9778 12.1044 33.1627 13.1866C32.9583 8.90332 36.0196 7.48628 37.6646 7.31905C39.7513 2.01612 41.6641 1.75096 42.3597 2.28125C45.6983 0.796431 46.3591 5.55139 46.2722 8.11447C48.46 8.29981 49.1185 12.3715 49.2277 14.2627C49.5879 13.3446 50.7971 12.6381 51.4888 12.3568C50.6542 10.0235 52.5322 9.26344 53.5755 9.17506C52.9495 6.41754 56.2708 4.13728 58.0097 3.34184C62.3917 5.03877 63.1394 8.9983 62.9655 10.7659C65.2609 12.4629 65.313 17.6597 65.0522 20.0461C68.5995 18.7734 70.008 22.5208 70.2689 24.5536C72.5642 24.5536 72.2686 26.8515 71.8339 28.0005C74.4422 26.9399 74.1814 29.8565 73.6597 30.9171C73.2424 31.7655 71.7469 31.2706 71.0514 30.9171C70.634 33.6746 68.7908 33.3034 67.9214 32.7731C66.878 34.2579 65.2261 33.3918 64.5305 32.7731C64.1132 35.1064 60.5311 35.8665 58.7922 35.9549C54.6188 39.9851 49.5761 37.6341 47.5763 35.9549C44.2377 41.4699 37.8385 38.2528 35.0563 35.9549C29.2136 39.9851 24.9707 35.5129 23.5796 32.7731C23.5796 33.3034 23.2145 34.2579 21.7538 33.8337C20.2931 33.4095 20.1018 32.2428 20.1888 31.7125C20.0149 32.2428 19.302 33.1973 17.8413 32.7731C16.3806 32.3489 16.711 31.359 17.0588 30.9171Z" fill="white"/>
<path d="M11.0596 21.9021C11.7552 24.9071 13.9288 30.9171 17.0588 30.9171C16.711 31.359 16.3806 32.3489 17.8413 32.7731C19.302 33.1973 20.0149 32.2428 20.1888 31.7125C20.1018 32.2428 20.2931 33.4095 21.7538 33.8337C23.2145 34.2579 23.5796 33.3034 23.5796 32.7731C24.9707 35.5129 29.2136 39.9851 35.0563 35.9549C37.8385 38.2528 44.2377 41.4699 47.5763 35.9549C49.5761 37.6341 54.6188 39.9851 58.7922 35.9549C60.5311 35.8665 64.1132 35.1064 64.5305 32.7731C65.2261 33.3918 66.878 34.2579 67.9214 32.7731C68.7908 33.3034 70.634 33.6746 71.0514 30.9171C71.7469 31.2706 73.2424 31.7655 73.6597 30.9171C74.1814 29.8565 74.4422 26.9399 71.8339 28.0005C72.2686 26.8515 72.5642 24.5536 70.2689 24.5536C70.008 22.5208 68.5995 18.7734 65.0522 20.0461C65.313 17.6597 65.2609 12.4629 62.9655 10.7659C63.1394 8.9983 62.3917 5.03877 58.0097 3.34184C56.2708 4.13728 52.9495 6.41754 53.5755 9.17506C52.5322 9.26344 50.6542 10.0235 51.4888 12.3568C50.6194 12.7103 48.9327 13.7356 49.1413 15.0083C49.4022 16.5992 49.4022 8.37962 46.2722 8.11447C46.3591 5.55139 45.6983 0.796431 42.3597 2.28125C41.6641 1.75096 39.7513 2.01612 37.6646 7.31905C35.9258 7.49582 32.6045 9.06903 33.2305 13.9477C33.2305 12.8871 32.761 10.7659 30.883 10.7659C31.2307 9.61698 31.3525 7.31905 29.0571 7.31905C29.4919 5.99331 29.8396 3.34184 27.753 3.34184C25.6663 3.34184 25.3185 5.99331 25.4055 7.31905C24.1882 6.87713 21.7538 6.62965 21.7538 9.17506C20.1888 9.26345 17.3718 10.3417 18.6238 13.9477C16.3632 12.622 11.4769 10.9781 10.0163 15.0083C8.71211 14.478 5.7386 13.7356 4.27793 15.0083C2.81727 16.281 2.97377 15.5386 3.2346 15.0083C2.10432 16.0689 0.730595 18.5612 4.27793 20.0461C3.75627 21.195 3.44326 23.7051 6.3646 24.5536C7.9296 25.2606 11.0596 25.7202 11.0596 21.9021Z" stroke="black" stroke-width="3"/>
</svg>
