<svg width="302" height="63" viewBox="0 0 302 63" fill="none" xmlns="http://www.w3.org/2000/svg">
<rect x="32.5711" y="1" width="30.0481" height="30.525" fill="#C4C4C4"/>
<path d="M48.9194 1.95386V11.5324M48.9194 11.5324V21.1108H45.5536V24.8949L43.8707 27.733L45.5536 30.5711L39.7836 26.787H36.4178V24.8949H32.5711L33.7732 22.5299H32.5711V13.7792L33.7732 11.5324V10.4681M48.9194 11.5324H51.0832V13.7792H58.7765L60.6998 12.5966L62.1423 6.92048V1.95386M32.5711 1.95386V10.4681M62.1423 13.7792V24.8949M62.1423 27.733V30.5711M60.6998 30.5711H47.2365M43.8707 30.5711H32.5711M35.2157 1.95386H47.2365M51.0832 1.95386H60.6998" stroke="black" stroke-width="3"/>
<rect x="3" y="1" width="30.0481" height="30.525" fill="#C4C4C4"/>
<path d="M19.3483 1.95386V11.5324M19.3483 11.5324V21.1108H15.9825V24.8949L14.2995 27.733L15.9825 30.5711L10.2125 26.787H6.84665V24.8949H3L4.20208 22.5299H3V13.7792L4.20208 11.5324V10.4681M19.3483 11.5324H21.512V13.7792H29.2053L31.1286 12.5966L32.5711 6.92048V1.95386M3 1.95386V10.4681M32.5711 13.7792V24.8949M32.5711 27.733V30.5711M31.1286 30.5711H17.6654M14.2995 30.5711H3M5.64457 1.95386H17.6654M21.512 1.95386H31.1286" stroke="black" stroke-width="3"/>
<rect x="92.1904" y="1" width="30.0481" height="30.525" fill="#C4C4C4"/>
<path d="M108.539 1.95386V11.5324M108.539 11.5324V21.1108H105.173V24.8949L103.49 27.733L105.173 30.5711L99.4029 26.787H96.037V24.8949H92.1904L93.3925 22.5299H92.1904V13.7792L93.3925 11.5324V10.4681M108.539 11.5324H110.702V13.7792H118.396L120.319 12.5966L121.762 6.92048V1.95386M92.1904 1.95386V10.4681M121.762 13.7792V24.8949M121.762 27.733V30.5711M120.319 30.5711H106.856M103.49 30.5711H92.1904M94.835 1.95386H106.856M110.702 1.95386H120.319" stroke="black" stroke-width="3"/>
<rect x="62.6192" y="1" width="30.0481" height="30.525" fill="#C4C4C4"/>
<path d="M78.9675 1.95386V11.5324M78.9675 11.5324V21.1108H75.6017V24.8949L73.9188 27.733L75.6017 30.5711L69.8317 26.787H66.4659V24.8949H62.6192L63.8213 22.5299H62.6192V13.7792L63.8213 11.5324V10.4681M78.9675 11.5324H81.1312V13.7792H88.8246L90.7479 12.5966L92.1904 6.92048V1.95386M62.6192 1.95386V10.4681M92.1904 13.7792V24.8949M92.1904 27.733V30.5711M90.7479 30.5711H77.2846M73.9188 30.5711H62.6192M65.2638 1.95386H77.2846M81.1312 1.95386H90.7479" stroke="black" stroke-width="3"/>
<rect x="151.333" y="1" width="30.0481" height="30.525" fill="#C4C4C4"/>
<path d="M167.681 1.95386V11.5324M167.681 11.5324V21.1108H164.315V24.8949L162.632 27.733L164.315 30.5711L158.545 26.787H155.179V24.8949H151.333L152.535 22.5299H151.333V13.7792L152.535 11.5324V10.4681M167.681 11.5324H169.845V13.7792H177.538L179.461 12.5966L180.904 6.92048V1.95386M151.333 1.95386V10.4681M180.904 13.7792V24.8949M180.904 27.733V30.5711M179.461 30.5711H165.998M162.632 30.5711H151.333M153.977 1.95386H165.998M169.845 1.95386H179.461" stroke="black" stroke-width="3"/>
<rect x="121.762" y="1" width="30.0481" height="30.525" fill="#C4C4C4"/>
<path d="M138.11 1.95386V11.5324M138.11 11.5324V21.1108H134.744V24.8949L133.061 27.733L134.744 30.5711L128.974 26.787H125.608V24.8949H121.762L122.964 22.5299H121.762V13.7792L122.964 11.5324V10.4681M138.11 11.5324H140.274V13.7792H147.967L149.89 12.5966L151.333 6.92048V1.95386M121.762 1.95386V10.4681M151.333 13.7792V24.8949M151.333 27.733V30.5711M149.89 30.5711H136.427M133.061 30.5711H121.762M124.406 1.95386H136.427M140.274 1.95386H149.89" stroke="black" stroke-width="3"/>
<rect x="210.952" y="1" width="30.0481" height="30.525" fill="#C4C4C4"/>
<path d="M227.3 1.95386V11.5324M227.3 11.5324V21.1108H223.934V24.8949L222.251 27.733L223.934 30.5711L218.164 26.787H214.799V24.8949H210.952L212.154 22.5299H210.952V13.7792L212.154 11.5324V10.4681M227.3 11.5324H229.464V13.7792H237.157L239.081 12.5966L240.523 6.92048V1.95386M210.952 1.95386V10.4681M240.523 13.7792V24.8949M240.523 27.733V30.5711M239.081 30.5711H225.617M222.251 30.5711H210.952M213.596 1.95386H225.617M229.464 1.95386H239.081" stroke="black" stroke-width="3"/>
<rect x="181.381" y="1" width="30.0481" height="30.525" fill="#C4C4C4"/>
<path d="M197.729 1.95386V11.5324M197.729 11.5324V21.1108H194.363V24.8949L192.68 27.733L194.363 30.5711L188.593 26.787H185.227V24.8949H181.381L182.583 22.5299H181.381V13.7792L182.583 11.5324V10.4681M197.729 11.5324H199.893V13.7792H207.586L209.509 12.5966L210.952 6.92048V1.95386M181.381 1.95386V10.4681M210.952 13.7792V24.8949M210.952 27.733V30.5711M209.509 30.5711H196.046M192.68 30.5711H181.381M184.025 1.95386H196.046M199.893 1.95386H209.509" stroke="black" stroke-width="3"/>
<rect x="270.571" y="1" width="30.0481" height="30.525" fill="#C4C4C4"/>
<path d="M286.919 1.95386V11.5324M286.919 11.5324V21.1108H283.554V24.8949L281.871 27.733L283.554 30.5711L277.784 26.787H274.418V24.8949H270.571L271.773 22.5299H270.571V13.7792L271.773 11.5324V10.4681M286.919 11.5324H289.083V13.7792H296.776L298.7 12.5966L300.142 6.92048V1.95386M270.571 1.95386V10.4681M300.142 13.7792V24.8949M300.142 27.733V30.5711M298.7 30.5711H285.237M281.871 30.5711H270.571M273.216 1.95386H285.237M289.083 1.95386H298.7" stroke="black" stroke-width="3"/>
<rect x="241" y="1" width="30.0481" height="30.525" fill="#C4C4C4"/>
<path d="M257.348 1.95386V11.5324M257.348 11.5324V21.1108H253.982V24.8949L252.3 27.733L253.982 30.5711L248.212 26.787H244.847V24.8949H241L242.202 22.5299H241V13.7792L242.202 11.5324V10.4681M257.348 11.5324H259.512V13.7792H267.205L269.129 12.5966L270.571 6.92048V1.95386M241 1.95386V10.4681M270.571 13.7792V24.8949M270.571 27.733V30.5711M269.129 30.5711H255.665M252.3 30.5711H241M243.645 1.95386H255.665M259.512 1.95386H269.129" stroke="black" stroke-width="3"/>
<rect x="32.5711" y="31" width="30.0481" height="30.525" fill="#C4C4C4"/>
<path d="M48.9194 31.9539V41.5324M48.9194 41.5324V51.1108H45.5536V54.8949L43.8707 57.733L45.5536 60.5711L39.7836 56.787H36.4178V54.8949H32.5711L33.7732 52.5299H32.5711V43.7792L33.7732 41.5324V40.4681M48.9194 41.5324H51.0832V43.7792H58.7765L60.6998 42.5966L62.1423 36.9205V31.9539M32.5711 31.9539V40.4681M62.1423 43.7792V54.8949M62.1423 57.733V60.5711M60.6998 60.5711H47.2365M43.8707 60.5711H32.5711M35.2157 31.9539H47.2365M51.0832 31.9539H60.6998" stroke="black" stroke-width="3"/>
<rect x="3" y="31" width="30.0481" height="30.525" fill="#C4C4C4"/>
<path d="M19.3483 31.9539V41.5324M19.3483 41.5324V51.1108H15.9825V54.8949L14.2995 57.733L15.9825 60.5711L10.2125 56.787H6.84665V54.8949H3L4.20208 52.5299H3V43.7792L4.20208 41.5324V40.4681M19.3483 41.5324H21.512V43.7792H29.2053L31.1286 42.5966L32.5711 36.9205V31.9539M3 31.9539V40.4681M32.5711 43.7792V54.8949M32.5711 57.733V60.5711M31.1286 60.5711H17.6654M14.2995 60.5711H3M5.64457 31.9539H17.6654M21.512 31.9539H31.1286" stroke="black" stroke-width="3"/>
<rect x="92.1904" y="31" width="30.0481" height="30.525" fill="#C4C4C4"/>
<path d="M108.539 31.9539V41.5324M108.539 41.5324V51.1108H105.173V54.8949L103.49 57.733L105.173 60.5711L99.4029 56.787H96.037V54.8949H92.1904L93.3925 52.5299H92.1904V43.7792L93.3925 41.5324V40.4681M108.539 41.5324H110.702V43.7792H118.396L120.319 42.5966L121.762 36.9205V31.9539M92.1904 31.9539V40.4681M121.762 43.7792V54.8949M121.762 57.733V60.5711M120.319 60.5711H106.856M103.49 60.5711H92.1904M94.835 31.9539H106.856M110.702 31.9539H120.319" stroke="black" stroke-width="3"/>
<rect x="62.6192" y="31" width="30.0481" height="30.525" fill="#C4C4C4"/>
<path d="M78.9675 31.9539V41.5324M78.9675 41.5324V51.1108H75.6017V54.8949L73.9188 57.733L75.6017 60.5711L69.8317 56.787H66.4659V54.8949H62.6192L63.8213 52.5299H62.6192V43.7792L63.8213 41.5324V40.4681M78.9675 41.5324H81.1312V43.7792H88.8246L90.7479 42.5966L92.1904 36.9205V31.9539M62.6192 31.9539V40.4681M92.1904 43.7792V54.8949M92.1904 57.733V60.5711M90.7479 60.5711H77.2846M73.9188 60.5711H62.6192M65.2638 31.9539H77.2846M81.1312 31.9539H90.7479" stroke="black" stroke-width="3"/>
<rect x="151.333" y="31" width="30.0481" height="30.525" fill="#C4C4C4"/>
<path d="M167.681 31.9539V41.5324M167.681 41.5324V51.1108H164.315V54.8949L162.632 57.733L164.315 60.5711L158.545 56.787H155.179V54.8949H151.333L152.535 52.5299H151.333V43.7792L152.535 41.5324V40.4681M167.681 41.5324H169.845V43.7792H177.538L179.461 42.5966L180.904 36.9205V31.9539M151.333 31.9539V40.4681M180.904 43.7792V54.8949M180.904 57.733V60.5711M179.461 60.5711H165.998M162.632 60.5711H151.333M153.977 31.9539H165.998M169.845 31.9539H179.461" stroke="black" stroke-width="3"/>
<rect x="121.762" y="31" width="30.0481" height="30.525" fill="#C4C4C4"/>
<path d="M138.11 31.9539V41.5324M138.11 41.5324V51.1108H134.744V54.8949L133.061 57.733L134.744 60.5711L128.974 56.787H125.608V54.8949H121.762L122.964 52.5299H121.762V43.7792L122.964 41.5324V40.4681M138.11 41.5324H140.274V43.7792H147.967L149.89 42.5966L151.333 36.9205V31.9539M121.762 31.9539V40.4681M151.333 43.7792V54.8949M151.333 57.733V60.5711M149.89 60.5711H136.427M133.061 60.5711H121.762M124.406 31.9539H136.427M140.274 31.9539H149.89" stroke="black" stroke-width="3"/>
<rect x="210.952" y="31" width="30.0481" height="30.525" fill="#C4C4C4"/>
<path d="M227.3 31.9539V41.5324M227.3 41.5324V51.1108H223.934V54.8949L222.251 57.733L223.934 60.5711L218.164 56.787H214.799V54.8949H210.952L212.154 52.5299H210.952V43.7792L212.154 41.5324V40.4681M227.3 41.5324H229.464V43.7792H237.157L239.081 42.5966L240.523 36.9205V31.9539M210.952 31.9539V40.4681M240.523 43.7792V54.8949M240.523 57.733V60.5711M239.081 60.5711H225.617M222.251 60.5711H210.952M213.596 31.9539H225.617M229.464 31.9539H239.081" stroke="black" stroke-width="3"/>
<rect x="181.381" y="31" width="30.0481" height="30.525" fill="#C4C4C4"/>
<path d="M197.729 31.9539V41.5324M197.729 41.5324V51.1108H194.363V54.8949L192.68 57.733L194.363 60.5711L188.593 56.787H185.227V54.8949H181.381L182.583 52.5299H181.381V43.7792L182.583 41.5324V40.4681M197.729 41.5324H199.893V43.7792H207.586L209.509 42.5966L210.952 36.9205V31.9539M181.381 31.9539V40.4681M210.952 43.7792V54.8949M210.952 57.733V60.5711M209.509 60.5711H196.046M192.68 60.5711H181.381M184.025 31.9539H196.046M199.893 31.9539H209.509" stroke="black" stroke-width="3"/>
<rect x="270.571" y="31" width="30.0481" height="30.525" fill="#C4C4C4"/>
<path d="M286.919 31.9539V41.5324M286.919 41.5324V51.1108H283.554V54.8949L281.871 57.733L283.554 60.5711L277.784 56.787H274.418V54.8949H270.571L271.773 52.5299H270.571V43.7792L271.773 41.5324V40.4681M286.919 41.5324H289.083V43.7792H296.776L298.7 42.5966L300.142 36.9205V31.9539M270.571 31.9539V40.4681M300.142 43.7792V54.8949M300.142 57.733V60.5711M298.7 60.5711H285.237M281.871 60.5711H270.571M273.216 31.9539H285.237M289.083 31.9539H298.7" stroke="black" stroke-width="3"/>
<rect x="241" y="31" width="30.0481" height="30.525" fill="#C4C4C4"/>
<path d="M257.348 31.9539V41.5324M257.348 41.5324V51.1108H253.982V54.8949L252.3 57.733L253.982 60.5711L248.212 56.787H244.847V54.8949H241L242.202 52.5299H241V43.7792L242.202 41.5324V40.4681M257.348 41.5324H259.512V43.7792H267.205L269.129 42.5966L270.571 36.9205V31.9539M241 31.9539V40.4681M270.571 43.7792V54.8949M270.571 57.733V60.5711M269.129 60.5711H255.665M252.3 60.5711H241M243.645 31.9539H255.665M259.512 31.9539H269.129" stroke="black" stroke-width="3"/>
</svg>
